<svg width="500" height="500" viewBox="0 0 500 500" fill="none" xmlns="http://www.w3.org/2000/svg">
<g clip-path="url(#clip0_2_18)">
<rect width="500" height="250" fill="black"/>
<rect y="250" width="481" height="250" fill="#FFFEFE"/>
<path fill-rule="evenodd" clip-rule="evenodd" d="M107.843 183.125C138.908 191.449 166.841 174.706 173.267 150.723C179.694 126.739 163.874 98.2731 132.81 89.9494C101.745 81.6257 73.8122 98.3682 67.3858 122.352C60.9594 146.335 76.7789 174.801 107.843 183.125ZM102.169 204.301C143.103 215.27 184.416 193.822 194.444 156.397C204.472 118.972 179.418 79.7412 138.484 68.7731C97.5502 57.8049 56.2375 79.2525 46.2095 116.678C36.1814 154.103 61.2355 193.333 102.169 204.301Z" fill="black"/>
<path d="M227.753 231.143C211.673 214.918 184.891 202.635 194.16 157.456L147.058 191.363L84.7368 197.361C111.515 212.48 152.878 224.698 187.27 250.936C204.508 264.087 409.298 432.423 427.118 440.035C441.374 446.124 459.904 451.089 469 431.965C393.91 369.855 240.617 244.122 227.753 231.143Z" fill="black"/>
<path fill-rule="evenodd" clip-rule="evenodd" d="M107.843 316.663C138.908 308.34 166.841 325.082 173.267 349.066C179.694 373.049 163.874 401.515 132.81 409.839C101.745 418.163 73.8122 401.42 67.3858 377.437C60.9594 353.453 76.7789 324.987 107.843 316.663ZM102.169 295.487C143.103 284.519 184.416 305.966 194.444 343.392C204.472 380.817 179.418 420.047 138.484 431.015C97.5502 441.984 56.2375 420.536 46.2095 383.111C36.1814 345.686 61.2355 306.455 102.169 295.487Z" fill="black"/>
<path d="M227.753 268.646C211.673 284.87 184.891 297.153 194.16 342.333L147.058 308.426L84.7368 302.428C111.515 287.309 152.878 275.09 187.27 248.853C204.508 235.701 411.397 71.0815 427.118 59.7537C430.753 57.1347 457.609 44.5288 469 67.8238C393.91 129.933 240.617 255.666 227.753 268.646Z" fill="black"/>
<circle cx="219.193" cy="250.06" r="11.5098" fill="white"/>
<path d="M500 500V250H460C305.295 250 167 397.163 167 500H500Z" fill="black"/>
<mask id="mask0_2_18" style="mask-type:alpha" maskUnits="userSpaceOnUse" x="0" y="0" width="500" height="250">
<rect width="500" height="250" fill="#D9D9D9"/>
</mask>
<g mask="url(#mask0_2_18)">
<path fill-rule="evenodd" clip-rule="evenodd" d="M107.843 183.125C138.908 191.449 166.841 174.706 173.267 150.723C179.694 126.739 163.874 98.2731 132.81 89.9494C101.745 81.6257 73.8122 98.3682 67.3858 122.352C60.9594 146.335 76.7789 174.801 107.843 183.125ZM102.169 204.301C143.103 215.27 184.416 193.822 194.444 156.397C204.472 118.972 179.418 79.7412 138.484 68.7731C97.5502 57.8049 56.2375 79.2525 46.2095 116.678C36.1814 154.103 61.2355 193.333 102.169 204.301Z" fill="white"/>
<path d="M227.753 231.143C211.673 214.918 184.891 202.635 194.16 157.456L147.058 191.363L84.7368 197.361C111.515 212.48 152.878 224.698 187.27 250.936C204.508 264.087 409.298 432.423 427.118 440.035C441.374 446.124 459.904 451.089 469 431.965C393.91 369.855 240.617 244.122 227.753 231.143Z" fill="white"/>
<path fill-rule="evenodd" clip-rule="evenodd" d="M107.843 316.663C138.908 308.34 166.841 325.082 173.267 349.066C179.694 373.049 163.874 401.515 132.81 409.839C101.745 418.163 73.8122 401.42 67.3858 377.437C60.9594 353.453 76.7789 324.987 107.843 316.663ZM102.169 295.487C143.103 284.519 184.416 305.966 194.444 343.392C204.472 380.817 179.418 420.047 138.484 431.015C97.5502 441.984 56.2375 420.536 46.2095 383.111C36.1814 345.686 61.2355 306.455 102.169 295.487Z" fill="white"/>
<path d="M227.753 268.646C211.673 284.87 184.891 297.153 194.16 342.333L147.058 308.426L84.7368 302.428C111.515 287.309 152.878 275.09 187.27 248.853C204.508 235.701 411.397 71.0815 427.118 59.7537C430.753 57.1347 457.609 44.5288 469 67.8238C393.91 129.933 240.617 255.666 227.753 268.646Z" fill="white"/>
<circle cx="219.193" cy="250.06" r="11.5098" fill="black"/>
</g>
</g>
<defs>
<clipPath id="clip0_2_18">
<rect width="500" height="500" fill="white"/>
</clipPath>
</defs>
</svg>
