<svg width="2472" height="468" viewBox="0 0 2472 468" fill="none" xmlns="http://www.w3.org/2000/svg">
<path d="M2472 0.761719H0V467.693H2472V0.761719Z" fill="white"/>
<path fill-rule="evenodd" clip-rule="evenodd" d="M841.785 365.9H427.113V345.9H841.785V365.9Z" fill="black"/>
<path d="M653.893 395.9C675.984 395.9 693.893 377.992 693.893 355.9C693.893 333.809 675.984 315.9 653.893 315.9C631.802 315.9 613.893 333.809 613.893 355.9C613.893 377.992 631.802 395.9 653.893 395.9Z" fill="white" stroke="black" stroke-width="20"/>
<path d="M803.893 395.9C825.984 395.9 843.893 377.992 843.893 355.9C843.893 333.809 825.984 315.9 803.893 315.9C781.802 315.9 763.893 333.809 763.893 355.9C763.893 377.992 781.802 395.9 803.893 395.9Z" fill="white" stroke="black" stroke-width="20"/>
<path d="M247.91 139L373.509 355.9H464.184" stroke="black" stroke-width="20"/>
<path d="M503.893 395.9C525.984 395.9 543.893 377.992 543.893 355.9C543.893 333.809 525.984 315.9 503.893 315.9C481.802 315.9 463.893 333.809 463.893 355.9C463.893 377.992 481.802 395.9 503.893 395.9Z" fill="white" stroke="black" stroke-width="20"/>
<path d="M0 129H2472" stroke="black" stroke-width="20"/>
<path d="M0 89H2472" stroke="black" stroke-width="20"/>
<path d="M219.253 149C241.344 149 259.253 131.091 259.253 109C259.253 86.9086 241.344 69 219.253 69C197.162 69 179.253 86.9086 179.253 109C179.253 131.091 197.162 149 219.253 149Z" fill="white" stroke="black" stroke-width="20"/>
</svg>
