<svg width="2472" height="467" viewBox="0 0 2472 467" fill="none" xmlns="http://www.w3.org/2000/svg">
<path d="M2472 0.453125H0V466.633H2472V0.453125Z" fill="white"/>
<path d="M247.91 138L373.509 354.9H464.184" stroke="black" stroke-width="20"/>
<path d="M503.893 394.9C525.984 394.9 543.893 376.992 543.893 354.9C543.893 332.809 525.984 314.9 503.893 314.9C481.802 314.9 463.893 332.809 463.893 354.9C463.893 376.992 481.802 394.9 503.893 394.9Z" fill="white" stroke="black" stroke-width="20"/>
<path d="M0 128H2472" stroke="black" stroke-width="20"/>
<path d="M0 88H2472" stroke="black" stroke-width="20"/>
<path d="M219.253 148C241.344 148 259.253 130.091 259.253 108C259.253 85.9086 241.344 68 219.253 68C197.162 68 179.253 85.9086 179.253 108C179.253 130.091 197.162 148 219.253 148Z" fill="white" stroke="black" stroke-width="20"/>
</svg>
