<svg width="2472" height="856" viewBox="0 0 2472 856" fill="none" xmlns="http://www.w3.org/2000/svg">
<path d="M2472 0.742188H0V855.624H2472V0.742188Z" fill="white"/>
<path d="M1999.24 168.772V88.915H1943.61V168.772L1971.43 145.956L1999.24 168.772Z" stroke="#CCCCCC" stroke-width="20"/>
<path fill-rule="evenodd" clip-rule="evenodd" d="M2009.32 261.653H1853.65V241.653H2009.32V261.653Z" fill="#CCCCCC"/>
<path d="M1821.43 291.653C1843.52 291.653 1861.43 273.745 1861.43 251.653C1861.43 229.562 1843.52 211.653 1821.43 211.653C1799.34 211.653 1781.43 229.562 1781.43 251.653C1781.43 273.745 1799.34 291.653 1821.43 291.653Z" fill="white" stroke="#CCCCCC" stroke-width="20"/>
<path d="M1971.43 291.653C1993.52 291.653 2011.43 273.745 2011.43 251.653C2011.43 229.562 1993.52 211.653 1971.43 211.653C1949.34 211.653 1931.43 229.562 1931.43 251.653C1931.43 273.745 1949.34 291.653 1971.43 291.653Z" fill="white" stroke="#CCCCCC" stroke-width="20"/>
<path d="M1565.61 468.553L1691.21 251.653H1781.88" stroke="#CCCCCC" stroke-width="20"/>
<path d="M1821.59 211.653C1843.68 211.653 1861.59 229.562 1861.59 251.653C1861.59 273.745 1843.68 291.653 1821.59 291.653C1799.5 291.653 1781.59 273.745 1781.59 251.653C1781.59 229.562 1799.5 211.653 1821.59 211.653Z" fill="white" stroke="#CCCCCC" stroke-width="20"/>
<path fill-rule="evenodd" clip-rule="evenodd" d="M1291.71 754.9H877.036V734.9H1291.71V754.9Z" fill="#CCCCCC"/>
<path d="M1103.82 784.9C1125.91 784.9 1143.82 766.992 1143.82 744.9C1143.82 722.809 1125.91 704.9 1103.82 704.9C1081.73 704.9 1063.82 722.809 1063.82 744.9C1063.82 766.992 1081.73 784.9 1103.82 784.9Z" fill="white" stroke="#CCCCCC" stroke-width="20"/>
<path d="M1253.82 784.9C1275.91 784.9 1293.82 766.992 1293.82 744.9C1293.82 722.809 1275.91 704.9 1253.82 704.9C1231.73 704.9 1213.82 722.809 1213.82 744.9C1213.82 766.992 1231.73 784.9 1253.82 784.9Z" fill="white" stroke="#CCCCCC" stroke-width="20"/>
<path fill-rule="evenodd" clip-rule="evenodd" d="M963.892 754.9H756.557V734.9H963.892V754.9Z" fill="#CCCCCC"/>
<path fill-rule="evenodd" clip-rule="evenodd" d="M1000.95 729.278L916.836 777.841L906.836 760.52L990.949 711.958L1000.95 729.278Z" fill="#CCCCCC"/>
<path fill-rule="evenodd" clip-rule="evenodd" d="M990.949 777.841L906.836 729.279L916.836 711.958L1000.95 760.521L990.949 777.841Z" fill="#CCCCCC"/>
<path fill-rule="evenodd" clip-rule="evenodd" d="M943.892 793.462V696.337H963.892V793.462H943.892Z" fill="#CCCCCC"/>
<path d="M953.892 754.899C959.415 754.899 963.892 750.422 963.892 744.899C963.892 739.377 959.415 734.899 953.892 734.899C948.369 734.899 943.892 739.377 943.892 744.899C943.892 750.422 948.369 754.899 953.892 754.899Z" fill="white"/>
<path d="M908.213 759.135L933.054 744.795" stroke="white"/>
<path d="M908.213 730.664L933.054 745.004" stroke="white"/>
<path d="M999.466 759.135L974.625 744.795" stroke="white"/>
<path d="M999.466 730.664L974.625 745.004" stroke="white"/>
<path fill-rule="evenodd" clip-rule="evenodd" d="M841.785 754.9H427.113V734.9H841.785V754.9Z" fill="#CCCCCC"/>
<path d="M653.893 784.9C675.984 784.9 693.893 766.992 693.893 744.9C693.893 722.809 675.984 704.9 653.893 704.9C631.802 704.9 613.893 722.809 613.893 744.9C613.893 766.992 631.802 784.9 653.893 784.9Z" fill="white" stroke="#CCCCCC" stroke-width="20"/>
<path d="M803.893 784.9C825.984 784.9 843.893 766.992 843.893 744.9C843.893 722.809 825.984 704.9 803.893 704.9C781.802 704.9 763.893 722.809 763.893 744.9C763.893 766.992 781.802 784.9 803.893 784.9Z" fill="white" stroke="#CCCCCC" stroke-width="20"/>
<path d="M247.91 528L373.509 744.9H464.184" stroke="#CCCCCC" stroke-width="20"/>
<path d="M503.893 784.9C525.984 784.9 543.893 766.992 543.893 744.9C543.893 722.809 525.984 704.9 503.893 704.9C481.802 704.9 463.893 722.809 463.893 744.9C463.893 766.992 481.802 784.9 503.893 784.9Z" fill="white" stroke="#CCCCCC" stroke-width="20"/>
<path d="M0 518H2472" stroke="#CCCCCC" stroke-width="20"/>
<path d="M0 478H2472" stroke="#CCCCCC" stroke-width="20"/>
<path d="M219.253 538C241.344 538 259.253 520.091 259.253 498C259.253 475.909 241.344 458 219.253 458C197.162 458 179.253 475.909 179.253 498C179.253 520.091 197.162 538 219.253 538Z" fill="white" stroke="#CCCCCC" stroke-width="20"/>
<path d="M1507.98 528L1382.38 744.9H1291.71" stroke="#CCCCCC" stroke-width="20"/>
<path d="M1536.8 538C1558.89 538 1576.8 520.091 1576.8 498C1576.8 475.909 1558.89 458 1536.8 458C1514.71 458 1496.8 475.909 1496.8 498C1496.8 520.091 1514.71 538 1536.8 538Z" fill="white" stroke="#CCCCCC" stroke-width="20"/>
<path d="M2220.52 468L2094.92 251.1H2004.24" stroke="#CCCCCC" stroke-width="20"/>
<path d="M2249.33 458C2271.42 458 2289.33 475.909 2289.33 498C2289.33 520.091 2271.42 538 2249.33 538C2227.24 538 2209.33 520.091 2209.33 498C2209.33 475.909 2227.24 458 2249.33 458Z" fill="white" stroke="#CCCCCC" stroke-width="20"/>
<path d="M1999.24 168.772V88.915H1943.61V168.772L1971.43 145.956L1999.24 168.772Z" stroke="black" stroke-width="20"/>
</svg>
