<svg width="2472" height="883" viewBox="0 0 2472 883" fill="none" xmlns="http://www.w3.org/2000/svg">
<path d="M2472 0.23999H0V882.998H2472V0.23999Z" fill="white"/>
<path d="M1999.24 180.772V100.915H1943.61V180.772L1971.43 157.956L1999.24 180.772Z" stroke="#CCCCCC" stroke-width="20"/>
<path fill-rule="evenodd" clip-rule="evenodd" d="M2009.32 273.653H1853.65V253.653H2009.32V273.653Z" fill="#CCCCCC"/>
<path d="M1821.43 303.653C1843.52 303.653 1861.43 285.744 1861.43 263.653C1861.43 241.562 1843.52 223.653 1821.43 223.653C1799.34 223.653 1781.43 241.562 1781.43 263.653C1781.43 285.744 1799.34 303.653 1821.43 303.653Z" fill="white" stroke="#CCCCCC" stroke-width="20"/>
<path d="M1971.43 303.653C1993.52 303.653 2011.43 285.744 2011.43 263.653C2011.43 241.562 1993.52 223.653 1971.43 223.653C1949.34 223.653 1931.43 241.562 1931.43 263.653C1931.43 285.744 1949.34 303.653 1971.43 303.653Z" fill="white" stroke="#CCCCCC" stroke-width="20"/>
<path d="M1565.61 480.553L1691.21 263.653H1781.88" stroke="#CCCCCC" stroke-width="20"/>
<path d="M1821.59 223.653C1843.68 223.653 1861.59 241.562 1861.59 263.653C1861.59 285.744 1843.68 303.653 1821.59 303.653C1799.5 303.653 1781.59 285.744 1781.59 263.653C1781.59 241.562 1799.5 223.653 1821.59 223.653Z" fill="white" stroke="#CCCCCC" stroke-width="20"/>
<path fill-rule="evenodd" clip-rule="evenodd" d="M1291.71 766.9H877.036V746.9H1291.71V766.9Z" fill="#CCCCCC"/>
<path d="M1103.82 796.9C1125.91 796.9 1143.82 778.991 1143.82 756.9C1143.82 734.809 1125.91 716.9 1103.82 716.9C1081.73 716.9 1063.82 734.809 1063.82 756.9C1063.82 778.991 1081.73 796.9 1103.82 796.9Z" fill="white" stroke="#CCCCCC" stroke-width="20"/>
<path d="M1253.82 796.9C1275.91 796.9 1293.82 778.991 1293.82 756.9C1293.82 734.809 1275.91 716.9 1253.82 716.9C1231.73 716.9 1213.82 734.809 1213.82 756.9C1213.82 778.991 1231.73 796.9 1253.82 796.9Z" fill="white" stroke="#CCCCCC" stroke-width="20"/>
<path fill-rule="evenodd" clip-rule="evenodd" d="M963.892 766.9H756.557V746.9H963.892V766.9Z" fill="#CCCCCC"/>
<path fill-rule="evenodd" clip-rule="evenodd" d="M1000.95 741.278L916.836 789.841L906.836 772.52L990.949 723.958L1000.95 741.278Z" fill="#CCCCCC"/>
<path fill-rule="evenodd" clip-rule="evenodd" d="M990.949 789.841L906.836 741.279L916.836 723.958L1000.95 772.521L990.949 789.841Z" fill="#CCCCCC"/>
<path fill-rule="evenodd" clip-rule="evenodd" d="M943.892 805.462V708.337H963.892V805.462H943.892Z" fill="#CCCCCC"/>
<path d="M953.892 766.899C959.415 766.899 963.892 762.422 963.892 756.899C963.892 751.376 959.415 746.899 953.892 746.899C948.369 746.899 943.892 751.376 943.892 756.899C943.892 762.422 948.369 766.899 953.892 766.899Z" fill="white"/>
<path d="M908.213 771.135L933.054 756.795" stroke="white"/>
<path d="M908.213 742.664L933.054 757.004" stroke="white"/>
<path d="M999.466 771.135L974.625 756.795" stroke="white"/>
<path d="M999.466 742.664L974.625 757.004" stroke="white"/>
<path fill-rule="evenodd" clip-rule="evenodd" d="M841.785 766.9H427.113V746.9H841.785V766.9Z" fill="#CCCCCC"/>
<path d="M653.893 796.9C675.984 796.9 693.893 778.991 693.893 756.9C693.893 734.809 675.984 716.9 653.893 716.9C631.802 716.9 613.893 734.809 613.893 756.9C613.893 778.991 631.802 796.9 653.893 796.9Z" fill="white" stroke="#CCCCCC" stroke-width="20"/>
<path d="M803.893 796.9C825.984 796.9 843.893 778.991 843.893 756.9C843.893 734.809 825.984 716.9 803.893 716.9C781.802 716.9 763.893 734.809 763.893 756.9C763.893 778.991 781.802 796.9 803.893 796.9Z" fill="white" stroke="#CCCCCC" stroke-width="20"/>
<path d="M247.91 540L373.509 756.9H464.184" stroke="#CCCCCC" stroke-width="20"/>
<path d="M503.893 796.9C525.984 796.9 543.893 778.991 543.893 756.9C543.893 734.809 525.984 716.9 503.893 716.9C481.802 716.9 463.893 734.809 463.893 756.9C463.893 778.991 481.802 796.9 503.893 796.9Z" fill="white" stroke="#CCCCCC" stroke-width="20"/>
<path d="M0 530H2472" stroke="#CCCCCC" stroke-width="20"/>
<path d="M0 490H2472" stroke="#CCCCCC" stroke-width="20"/>
<path d="M219.253 550C241.344 550 259.253 532.091 259.253 510C259.253 487.909 241.344 470 219.253 470C197.162 470 179.253 487.909 179.253 510C179.253 532.091 197.162 550 219.253 550Z" fill="white" stroke="#CCCCCC" stroke-width="20"/>
<path d="M1507.98 540L1382.38 756.9H1291.71" stroke="#CCCCCC" stroke-width="20"/>
<path d="M1536.8 550C1558.89 550 1576.8 532.091 1576.8 510C1576.8 487.909 1558.89 470 1536.8 470C1514.71 470 1496.8 487.909 1496.8 510C1496.8 532.091 1514.71 550 1536.8 550Z" fill="white" stroke="#CCCCCC" stroke-width="20"/>
<path d="M2220.52 480L2094.92 263.1H2004.24" stroke="#CCCCCC" stroke-width="20"/>
<path d="M2249.33 470C2271.42 470 2289.33 487.909 2289.33 510C2289.33 532.091 2271.42 550 2249.33 550C2227.24 550 2209.33 532.091 2209.33 510C2209.33 487.909 2227.24 470 2249.33 470Z" fill="white" stroke="#CCCCCC" stroke-width="20"/>
<path fill-rule="evenodd" clip-rule="evenodd" d="M1000.95 741.278L916.836 789.841L906.836 772.52L990.949 723.958L1000.95 741.278Z" fill="black"/>
<path fill-rule="evenodd" clip-rule="evenodd" d="M990.949 789.841L906.836 741.279L916.836 723.958L1000.95 772.52L990.949 789.841Z" fill="black"/>
<path fill-rule="evenodd" clip-rule="evenodd" d="M943.892 805.462V708.337H963.892V805.462H943.892Z" fill="black"/>
<path d="M953.892 766.899C959.415 766.899 963.892 762.422 963.892 756.899C963.892 751.376 959.415 746.899 953.892 746.899C948.369 746.899 943.892 751.376 943.892 756.899C943.892 762.422 948.369 766.899 953.892 766.899Z" fill="white"/>
</svg>
