<svg width="2472" height="867" viewBox="0 0 2472 867" fill="none" xmlns="http://www.w3.org/2000/svg">
<path d="M2472 0.219238H0V866.716H2472V0.219238Z" fill="white"/>
<path d="M1999.24 163.772V83.915H1943.61V163.772L1971.43 140.956L1999.24 163.772Z" stroke="black" stroke-width="20"/>
<path fill-rule="evenodd" clip-rule="evenodd" d="M2009.32 256.653H1853.65V236.653H2009.32V256.653Z" fill="black"/>
<path d="M1821.43 286.653C1843.52 286.653 1861.43 268.744 1861.43 246.653C1861.43 224.562 1843.52 206.653 1821.43 206.653C1799.34 206.653 1781.43 224.562 1781.43 246.653C1781.43 268.744 1799.34 286.653 1821.43 286.653Z" fill="white" stroke="black" stroke-width="20"/>
<path d="M1971.43 286.653C1993.52 286.653 2011.43 268.744 2011.43 246.653C2011.43 224.562 1993.52 206.653 1971.43 206.653C1949.34 206.653 1931.43 224.562 1931.43 246.653C1931.43 268.744 1949.34 286.653 1971.43 286.653Z" fill="white" stroke="black" stroke-width="20"/>
<path d="M1565.61 463.553L1691.21 246.653H1781.88" stroke="black" stroke-width="20"/>
<path d="M1821.59 206.653C1843.68 206.653 1861.59 224.562 1861.59 246.653C1861.59 268.744 1843.68 286.653 1821.59 286.653C1799.5 286.653 1781.59 268.744 1781.59 246.653C1781.59 224.562 1799.5 206.653 1821.59 206.653Z" fill="white" stroke="black" stroke-width="20"/>
<path fill-rule="evenodd" clip-rule="evenodd" d="M1291.71 749.9H877.036V729.9H1291.71V749.9Z" fill="black"/>
<path d="M1103.82 779.9C1125.91 779.9 1143.82 761.991 1143.82 739.9C1143.82 717.809 1125.91 699.9 1103.82 699.9C1081.73 699.9 1063.82 717.809 1063.82 739.9C1063.82 761.991 1081.73 779.9 1103.82 779.9Z" fill="white" stroke="black" stroke-width="20"/>
<path d="M1253.82 779.9C1275.91 779.9 1293.82 761.991 1293.82 739.9C1293.82 717.809 1275.91 699.9 1253.82 699.9C1231.73 699.9 1213.82 717.809 1213.82 739.9C1213.82 761.991 1231.73 779.9 1253.82 779.9Z" fill="white" stroke="black" stroke-width="20"/>
<path fill-rule="evenodd" clip-rule="evenodd" d="M1000.95 724.278L916.836 772.841L906.836 755.52L990.949 706.958L1000.95 724.278Z" fill="black"/>
<path fill-rule="evenodd" clip-rule="evenodd" d="M990.949 772.841L906.836 724.279L916.836 706.958L1000.95 755.521L990.949 772.841Z" fill="black"/>
<path fill-rule="evenodd" clip-rule="evenodd" d="M943.892 788.462V691.337H963.892V788.462H943.892Z" fill="black"/>
<path fill-rule="evenodd" clip-rule="evenodd" d="M963.892 749.9H756.557V729.9H963.892V749.9Z" fill="black"/>
<path d="M953.892 749.899C959.415 749.899 963.892 745.422 963.892 739.899C963.892 734.376 959.415 729.899 953.892 729.899C948.369 729.899 943.892 734.376 943.892 739.899C943.892 745.422 948.369 749.899 953.892 749.899Z" fill="white"/>
<path d="M908.213 754.135L933.054 739.795" stroke="white"/>
<path d="M908.213 725.664L933.054 740.004" stroke="white"/>
<path d="M999.466 754.135L974.625 739.795" stroke="white"/>
<path d="M999.466 725.664L974.625 740.004" stroke="white"/>
<path fill-rule="evenodd" clip-rule="evenodd" d="M841.785 749.9H427.113V729.9H841.785V749.9Z" fill="black"/>
<path d="M653.893 779.9C675.984 779.9 693.893 761.991 693.893 739.9C693.893 717.809 675.984 699.9 653.893 699.9C631.802 699.9 613.893 717.809 613.893 739.9C613.893 761.991 631.802 779.9 653.893 779.9Z" fill="white" stroke="black" stroke-width="20"/>
<path d="M803.893 779.9C825.984 779.9 843.893 761.991 843.893 739.9C843.893 717.809 825.984 699.9 803.893 699.9C781.802 699.9 763.893 717.809 763.893 739.9C763.893 761.991 781.802 779.9 803.893 779.9Z" fill="white" stroke="black" stroke-width="20"/>
<path d="M247.91 523L373.509 739.9H464.184" stroke="black" stroke-width="20"/>
<path d="M503.893 779.9C525.984 779.9 543.893 761.991 543.893 739.9C543.893 717.809 525.984 699.9 503.893 699.9C481.802 699.9 463.893 717.809 463.893 739.9C463.893 761.991 481.802 779.9 503.893 779.9Z" fill="white" stroke="black" stroke-width="20"/>
<path d="M0 513H2472" stroke="black" stroke-width="20"/>
<path d="M0 473H2472" stroke="black" stroke-width="20"/>
<path d="M219.253 533C241.344 533 259.253 515.091 259.253 493C259.253 470.909 241.344 453 219.253 453C197.162 453 179.253 470.909 179.253 493C179.253 515.091 197.162 533 219.253 533Z" fill="white" stroke="black" stroke-width="20"/>
<path d="M1507.98 523L1382.38 739.9H1291.71" stroke="black" stroke-width="20"/>
<path d="M1536.8 533C1558.89 533 1576.8 515.091 1576.8 493C1576.8 470.909 1558.89 453 1536.8 453C1514.71 453 1496.8 470.909 1496.8 493C1496.8 515.091 1514.71 533 1536.8 533Z" fill="white" stroke="black" stroke-width="20"/>
</svg>
