<svg width="2472" height="858" viewBox="0 0 2472 858" fill="none" xmlns="http://www.w3.org/2000/svg">
<path d="M2472 0.359375H0V857.564H2472V0.359375Z" fill="white"/>
<path d="M1999.24 161.772V81.915H1943.61V161.772L1971.43 138.956L1999.24 161.772Z" stroke="#CCCCCC" stroke-width="20"/>
<path fill-rule="evenodd" clip-rule="evenodd" d="M2009.32 254.653H1853.65V234.653H2009.32V254.653Z" fill="#CCCCCC"/>
<path d="M1821.43 284.653C1843.52 284.653 1861.43 266.744 1861.43 244.653C1861.43 222.561 1843.52 204.653 1821.43 204.653C1799.34 204.653 1781.43 222.561 1781.43 244.653C1781.43 266.744 1799.34 284.653 1821.43 284.653Z" fill="white" stroke="#CCCCCC" stroke-width="20"/>
<path d="M1971.43 284.653C1993.52 284.653 2011.43 266.744 2011.43 244.653C2011.43 222.561 1993.52 204.653 1971.43 204.653C1949.34 204.653 1931.43 222.561 1931.43 244.653C1931.43 266.744 1949.34 284.653 1971.43 284.653Z" fill="white" stroke="#CCCCCC" stroke-width="20"/>
<path d="M1565.61 461.553L1691.21 244.653H1781.88" stroke="#CCCCCC" stroke-width="20"/>
<path d="M1821.59 204.653C1843.68 204.653 1861.59 222.561 1861.59 244.653C1861.59 266.744 1843.68 284.653 1821.59 284.653C1799.5 284.653 1781.59 266.744 1781.59 244.653C1781.59 222.561 1799.5 204.653 1821.59 204.653Z" fill="white" stroke="#CCCCCC" stroke-width="20"/>
<path fill-rule="evenodd" clip-rule="evenodd" d="M1291.71 747.9H877.036V727.9H1291.71V747.9Z" fill="#CCCCCC"/>
<path d="M1103.82 777.9C1125.91 777.9 1143.82 759.991 1143.82 737.9C1143.82 715.809 1125.91 697.9 1103.82 697.9C1081.73 697.9 1063.82 715.809 1063.82 737.9C1063.82 759.991 1081.73 777.9 1103.82 777.9Z" fill="white" stroke="#CCCCCC" stroke-width="20"/>
<path d="M1253.82 777.9C1275.91 777.9 1293.82 759.991 1293.82 737.9C1293.82 715.809 1275.91 697.9 1253.82 697.9C1231.73 697.9 1213.82 715.809 1213.82 737.9C1213.82 759.991 1231.73 777.9 1253.82 777.9Z" fill="white" stroke="#CCCCCC" stroke-width="20"/>
<path fill-rule="evenodd" clip-rule="evenodd" d="M963.892 747.9H756.557V727.9H963.892V747.9Z" fill="#CCCCCC"/>
<path fill-rule="evenodd" clip-rule="evenodd" d="M1000.95 722.278L916.836 770.841L906.836 753.52L990.949 704.958L1000.95 722.278Z" fill="#CCCCCC"/>
<path fill-rule="evenodd" clip-rule="evenodd" d="M990.949 770.841L906.836 722.279L916.836 704.958L1000.95 753.521L990.949 770.841Z" fill="#CCCCCC"/>
<path fill-rule="evenodd" clip-rule="evenodd" d="M943.892 786.462V689.337H963.892V786.462H943.892Z" fill="#CCCCCC"/>
<path d="M953.892 747.899C959.415 747.899 963.892 743.422 963.892 737.899C963.892 732.376 959.415 727.899 953.892 727.899C948.369 727.899 943.892 732.376 943.892 737.899C943.892 743.422 948.369 747.899 953.892 747.899Z" fill="white"/>
<path d="M908.213 752.135L933.054 737.795" stroke="white"/>
<path d="M908.213 723.664L933.054 738.004" stroke="white"/>
<path d="M999.466 752.135L974.625 737.795" stroke="white"/>
<path d="M999.466 723.664L974.625 738.004" stroke="white"/>
<path fill-rule="evenodd" clip-rule="evenodd" d="M841.785 747.9H427.113V727.9H841.785V747.9Z" fill="#CCCCCC"/>
<path d="M653.893 777.9C675.984 777.9 693.893 759.991 693.893 737.9C693.893 715.809 675.984 697.9 653.893 697.9C631.802 697.9 613.893 715.809 613.893 737.9C613.893 759.991 631.802 777.9 653.893 777.9Z" fill="white" stroke="#CCCCCC" stroke-width="20"/>
<path d="M803.893 777.9C825.984 777.9 843.893 759.991 843.893 737.9C843.893 715.809 825.984 697.9 803.893 697.9C781.802 697.9 763.893 715.809 763.893 737.9C763.893 759.991 781.802 777.9 803.893 777.9Z" fill="white" stroke="#CCCCCC" stroke-width="20"/>
<path d="M247.91 521L373.509 737.9H464.184" stroke="#CCCCCC" stroke-width="20"/>
<path d="M503.893 777.9C525.984 777.9 543.893 759.991 543.893 737.9C543.893 715.809 525.984 697.9 503.893 697.9C481.802 697.9 463.893 715.809 463.893 737.9C463.893 759.991 481.802 777.9 503.893 777.9Z" fill="white" stroke="#CCCCCC" stroke-width="20"/>
<path d="M0 511H2472" stroke="#CCCCCC" stroke-width="20"/>
<path d="M0 471H2472" stroke="#CCCCCC" stroke-width="20"/>
<path d="M219.253 531C241.344 531 259.253 513.091 259.253 491C259.253 468.909 241.344 451 219.253 451C197.162 451 179.253 468.909 179.253 491C179.253 513.091 197.162 531 219.253 531Z" fill="white" stroke="#CCCCCC" stroke-width="20"/>
<path d="M1507.98 521L1382.38 737.9H1291.71" stroke="#CCCCCC" stroke-width="20"/>
<path d="M1536.8 531C1558.89 531 1576.8 513.091 1576.8 491C1576.8 468.909 1558.89 451 1536.8 451C1514.71 451 1496.8 468.909 1496.8 491C1496.8 513.091 1514.71 531 1536.8 531Z" fill="white" stroke="#CCCCCC" stroke-width="20"/>
<path d="M2220.52 461L2094.92 244.1H2004.24" stroke="#CCCCCC" stroke-width="20"/>
<path d="M2249.33 451C2271.42 451 2289.33 468.909 2289.33 491C2289.33 513.091 2271.42 531 2249.33 531C2227.24 531 2209.33 513.091 2209.33 491C2209.33 468.909 2227.24 451 2249.33 451Z" fill="white" stroke="#CCCCCC" stroke-width="20"/>
<path d="M219.253 531C241.344 531 259.253 513.091 259.253 491C259.253 468.909 241.344 451 219.253 451C197.162 451 179.253 468.909 179.253 491C179.253 513.091 197.162 531 219.253 531Z" fill="white" stroke="black" stroke-width="20"/>
</svg>
