<svg width="2472" height="760" viewBox="0 0 2472 760" fill="none" xmlns="http://www.w3.org/2000/svg">
<path d="M2472 0.046875H0V759.683H2472V0.046875Z" fill="white"/>
<path d="M1565.61 344.553L1691.21 127.653H1781.88" stroke="black" stroke-width="20"/>
<path d="M1821.59 87.6528C1843.68 87.6528 1861.59 105.561 1861.59 127.653C1861.59 149.744 1843.68 167.653 1821.59 167.653C1799.5 167.653 1781.59 149.744 1781.59 127.653C1781.59 105.561 1799.5 87.6528 1821.59 87.6528Z" fill="white" stroke="black" stroke-width="20"/>
<path fill-rule="evenodd" clip-rule="evenodd" d="M1291.71 630.9H877.036V610.9H1291.71V630.9Z" fill="black"/>
<path d="M1103.82 660.9C1125.91 660.9 1143.82 642.991 1143.82 620.9C1143.82 598.809 1125.91 580.9 1103.82 580.9C1081.73 580.9 1063.82 598.809 1063.82 620.9C1063.82 642.991 1081.73 660.9 1103.82 660.9Z" fill="white" stroke="black" stroke-width="20"/>
<path d="M1253.82 660.9C1275.91 660.9 1293.82 642.991 1293.82 620.9C1293.82 598.809 1275.91 580.9 1253.82 580.9C1231.73 580.9 1213.82 598.809 1213.82 620.9C1213.82 642.991 1231.73 660.9 1253.82 660.9Z" fill="white" stroke="black" stroke-width="20"/>
<path fill-rule="evenodd" clip-rule="evenodd" d="M1000.95 605.278L916.836 653.841L906.836 636.52L990.949 587.958L1000.95 605.278Z" fill="black"/>
<path fill-rule="evenodd" clip-rule="evenodd" d="M990.949 653.841L906.836 605.279L916.836 587.958L1000.95 636.521L990.949 653.841Z" fill="black"/>
<path fill-rule="evenodd" clip-rule="evenodd" d="M943.892 669.462V572.337H963.892V669.462H943.892Z" fill="black"/>
<path fill-rule="evenodd" clip-rule="evenodd" d="M963.892 630.9H756.557V610.9H963.892V630.9Z" fill="black"/>
<path d="M953.892 630.899C959.415 630.899 963.892 626.422 963.892 620.899C963.892 615.376 959.415 610.899 953.892 610.899C948.369 610.899 943.892 615.376 943.892 620.899C943.892 626.422 948.369 630.899 953.892 630.899Z" fill="white"/>
<path d="M908.213 635.135L933.054 620.795" stroke="white"/>
<path d="M908.213 606.664L933.054 621.004" stroke="white"/>
<path d="M999.466 635.135L974.625 620.795" stroke="white"/>
<path d="M999.466 606.664L974.625 621.004" stroke="white"/>
<path fill-rule="evenodd" clip-rule="evenodd" d="M841.785 630.9H427.113V610.9H841.785V630.9Z" fill="black"/>
<path d="M653.893 660.9C675.984 660.9 693.893 642.991 693.893 620.9C693.893 598.809 675.984 580.9 653.893 580.9C631.802 580.9 613.893 598.809 613.893 620.9C613.893 642.991 631.802 660.9 653.893 660.9Z" fill="white" stroke="black" stroke-width="20"/>
<path d="M803.893 660.9C825.984 660.9 843.893 642.991 843.893 620.9C843.893 598.809 825.984 580.9 803.893 580.9C781.802 580.9 763.893 598.809 763.893 620.9C763.893 642.991 781.802 660.9 803.893 660.9Z" fill="white" stroke="black" stroke-width="20"/>
<path d="M247.91 404L373.509 620.9H464.184" stroke="black" stroke-width="20"/>
<path d="M503.893 660.9C525.984 660.9 543.893 642.991 543.893 620.9C543.893 598.809 525.984 580.9 503.893 580.9C481.802 580.9 463.893 598.809 463.893 620.9C463.893 642.991 481.802 660.9 503.893 660.9Z" fill="white" stroke="black" stroke-width="20"/>
<path d="M0 394H2472" stroke="black" stroke-width="20"/>
<path d="M0 354H2472" stroke="black" stroke-width="20"/>
<path d="M219.253 414C241.344 414 259.253 396.091 259.253 374C259.253 351.909 241.344 334 219.253 334C197.162 334 179.253 351.909 179.253 374C179.253 396.091 197.162 414 219.253 414Z" fill="white" stroke="black" stroke-width="20"/>
<path d="M1507.98 404L1382.38 620.9H1291.71" stroke="black" stroke-width="20"/>
<path d="M1536.8 414C1558.89 414 1576.8 396.091 1576.8 374C1576.8 351.909 1558.89 334 1536.8 334C1514.71 334 1496.8 351.909 1496.8 374C1496.8 396.091 1514.71 414 1536.8 414Z" fill="white" stroke="black" stroke-width="20"/>
</svg>
