<svg width="2472" height="473" viewBox="0 0 2472 473" fill="none" xmlns="http://www.w3.org/2000/svg">
<path d="M2472 0.904297H0V472.482H2472V0.904297Z" fill="white"/>
<path fill-rule="evenodd" clip-rule="evenodd" d="M1000.95 343.277L916.836 391.84L906.836 374.519L990.949 325.957L1000.95 343.277Z" fill="black"/>
<path fill-rule="evenodd" clip-rule="evenodd" d="M990.949 391.84L906.836 343.278L916.836 325.957L1000.95 374.52L990.949 391.84Z" fill="black"/>
<path fill-rule="evenodd" clip-rule="evenodd" d="M943.892 407.463V310.338H963.892V407.463H943.892Z" fill="black"/>
<path fill-rule="evenodd" clip-rule="evenodd" d="M963.892 368.9H756.557V348.9H963.892V368.9Z" fill="black"/>
<path d="M953.892 368.898C959.415 368.898 963.892 364.421 963.892 358.898C963.892 353.376 959.415 348.898 953.892 348.898C948.369 348.898 943.892 353.376 943.892 358.898C943.892 364.421 948.369 368.898 953.892 368.898Z" fill="white"/>
<path d="M908.213 373.135L933.054 358.795" stroke="white"/>
<path d="M908.213 344.664L933.054 359.004" stroke="white"/>
<path d="M999.466 373.135L974.625 358.795" stroke="white"/>
<path d="M999.466 344.664L974.625 359.004" stroke="white"/>
<path fill-rule="evenodd" clip-rule="evenodd" d="M841.785 368.9H427.113V348.9H841.785V368.9Z" fill="black"/>
<path d="M653.893 398.9C675.984 398.9 693.893 380.992 693.893 358.9C693.893 336.809 675.984 318.9 653.893 318.9C631.802 318.9 613.893 336.809 613.893 358.9C613.893 380.992 631.802 398.9 653.893 398.9Z" fill="white" stroke="black" stroke-width="20"/>
<path d="M803.893 398.9C825.984 398.9 843.893 380.992 843.893 358.9C843.893 336.809 825.984 318.9 803.893 318.9C781.802 318.9 763.893 336.809 763.893 358.9C763.893 380.992 781.802 398.9 803.893 398.9Z" fill="white" stroke="black" stroke-width="20"/>
<path d="M247.91 142L373.509 358.9H464.184" stroke="black" stroke-width="20"/>
<path d="M503.893 398.9C525.984 398.9 543.893 380.992 543.893 358.9C543.893 336.809 525.984 318.9 503.893 318.9C481.802 318.9 463.893 336.809 463.893 358.9C463.893 380.992 481.802 398.9 503.893 398.9Z" fill="white" stroke="black" stroke-width="20"/>
<path d="M0 132H2472" stroke="black" stroke-width="20"/>
<path d="M0 92H2472" stroke="black" stroke-width="20"/>
<path d="M219.253 152C241.344 152 259.253 134.091 259.253 112C259.253 89.9086 241.344 72 219.253 72C197.162 72 179.253 89.9086 179.253 112C179.253 134.091 197.162 152 219.253 152Z" fill="white" stroke="black" stroke-width="20"/>
</svg>
