<svg width="2472" height="493" viewBox="0 0 2472 493" fill="none" xmlns="http://www.w3.org/2000/svg">
<path d="M2472 0.00585938H0V492.492H2472V0.00585938Z" fill="white"/>
<path fill-rule="evenodd" clip-rule="evenodd" d="M1291.71 378.9H877.036V358.9H1291.71V378.9Z" fill="black"/>
<path d="M1103.82 408.9C1125.91 408.9 1143.82 390.992 1143.82 368.9C1143.82 346.809 1125.91 328.9 1103.82 328.9C1081.73 328.9 1063.82 346.809 1063.82 368.9C1063.82 390.992 1081.73 408.9 1103.82 408.9Z" fill="white" stroke="black" stroke-width="20"/>
<path d="M1253.82 408.9C1275.91 408.9 1293.82 390.992 1293.82 368.9C1293.82 346.809 1275.91 328.9 1253.82 328.9C1231.73 328.9 1213.82 346.809 1213.82 368.9C1213.82 390.992 1231.73 408.9 1253.82 408.9Z" fill="white" stroke="black" stroke-width="20"/>
<path fill-rule="evenodd" clip-rule="evenodd" d="M1000.95 353.278L916.836 401.841L906.836 384.52L990.949 335.958L1000.95 353.278Z" fill="black"/>
<path fill-rule="evenodd" clip-rule="evenodd" d="M990.949 401.841L906.836 353.279L916.836 335.958L1000.95 384.521L990.949 401.841Z" fill="black"/>
<path fill-rule="evenodd" clip-rule="evenodd" d="M943.892 417.462V320.337H963.892V417.462H943.892Z" fill="black"/>
<path fill-rule="evenodd" clip-rule="evenodd" d="M963.892 378.9H756.557V358.9H963.892V378.9Z" fill="black"/>
<path d="M953.892 378.899C959.415 378.899 963.892 374.422 963.892 368.899C963.892 363.377 959.415 358.899 953.892 358.899C948.369 358.899 943.892 363.377 943.892 368.899C943.892 374.422 948.369 378.899 953.892 378.899Z" fill="white"/>
<path d="M908.213 383.135L933.054 368.795" stroke="white"/>
<path d="M908.213 354.664L933.054 369.004" stroke="white"/>
<path d="M999.466 383.135L974.625 368.795" stroke="white"/>
<path d="M999.466 354.664L974.625 369.004" stroke="white"/>
<path fill-rule="evenodd" clip-rule="evenodd" d="M841.785 378.9H427.113V358.9H841.785V378.9Z" fill="black"/>
<path d="M653.893 408.9C675.984 408.9 693.893 390.992 693.893 368.9C693.893 346.809 675.984 328.9 653.893 328.9C631.802 328.9 613.893 346.809 613.893 368.9C613.893 390.992 631.802 408.9 653.893 408.9Z" fill="white" stroke="black" stroke-width="20"/>
<path d="M803.893 408.9C825.984 408.9 843.893 390.992 843.893 368.9C843.893 346.809 825.984 328.9 803.893 328.9C781.802 328.9 763.893 346.809 763.893 368.9C763.893 390.992 781.802 408.9 803.893 408.9Z" fill="white" stroke="black" stroke-width="20"/>
<path d="M247.91 152L373.509 368.9H464.184" stroke="black" stroke-width="20"/>
<path d="M503.893 408.9C525.984 408.9 543.893 390.992 543.893 368.9C543.893 346.809 525.984 328.9 503.893 328.9C481.802 328.9 463.893 346.809 463.893 368.9C463.893 390.992 481.802 408.9 503.893 408.9Z" fill="white" stroke="black" stroke-width="20"/>
<path d="M0 142H2472" stroke="black" stroke-width="20"/>
<path d="M0 102H2472" stroke="black" stroke-width="20"/>
<path d="M219.253 162C241.344 162 259.253 144.091 259.253 122C259.253 99.9086 241.344 82 219.253 82C197.162 82 179.253 99.9086 179.253 122C179.253 144.091 197.162 162 219.253 162Z" fill="white" stroke="black" stroke-width="20"/>
<path d="M1507.98 152L1382.38 368.9H1291.71" stroke="black" stroke-width="20"/>
<path d="M1536.8 162C1558.89 162 1576.8 144.091 1576.8 122C1576.8 99.9086 1558.89 82 1536.8 82C1514.71 82 1496.8 99.9086 1496.8 122C1496.8 144.091 1514.71 162 1536.8 162Z" fill="white" stroke="black" stroke-width="20"/>
</svg>
