<svg width="2472" height="484" viewBox="0 0 2472 484" fill="none" xmlns="http://www.w3.org/2000/svg">
<path d="M2472 0.509766H0V483.704H2472V0.509766Z" fill="white"/>
<path fill-rule="evenodd" clip-rule="evenodd" d="M1291.71 371.9H877.036V351.9H1291.71V371.9Z" fill="black"/>
<path d="M1103.82 401.9C1125.91 401.9 1143.82 383.992 1143.82 361.9C1143.82 339.809 1125.91 321.9 1103.82 321.9C1081.73 321.9 1063.82 339.809 1063.82 361.9C1063.82 383.992 1081.73 401.9 1103.82 401.9Z" fill="white" stroke="black" stroke-width="20"/>
<path d="M1253.82 401.9C1275.91 401.9 1293.82 383.992 1293.82 361.9C1293.82 339.809 1275.91 321.9 1253.82 321.9C1231.73 321.9 1213.82 339.809 1213.82 361.9C1213.82 383.992 1231.73 401.9 1253.82 401.9Z" fill="white" stroke="black" stroke-width="20"/>
<path fill-rule="evenodd" clip-rule="evenodd" d="M1000.95 346.278L916.836 394.841L906.836 377.52L990.949 328.958L1000.95 346.278Z" fill="black"/>
<path fill-rule="evenodd" clip-rule="evenodd" d="M990.949 394.841L906.836 346.279L916.836 328.958L1000.95 377.521L990.949 394.841Z" fill="black"/>
<path fill-rule="evenodd" clip-rule="evenodd" d="M943.892 410.462V313.337H963.892V410.462H943.892Z" fill="black"/>
<path fill-rule="evenodd" clip-rule="evenodd" d="M963.892 371.9H756.557V351.9H963.892V371.9Z" fill="black"/>
<path d="M953.892 371.899C959.415 371.899 963.892 367.422 963.892 361.899C963.892 356.377 959.415 351.899 953.892 351.899C948.369 351.899 943.892 356.377 943.892 361.899C943.892 367.422 948.369 371.899 953.892 371.899Z" fill="white"/>
<path d="M908.213 376.135L933.054 361.795" stroke="white"/>
<path d="M908.213 347.664L933.054 362.004" stroke="white"/>
<path d="M999.466 376.135L974.625 361.795" stroke="white"/>
<path d="M999.466 347.664L974.625 362.004" stroke="white"/>
<path fill-rule="evenodd" clip-rule="evenodd" d="M841.785 371.9H427.113V351.9H841.785V371.9Z" fill="black"/>
<path d="M653.893 401.9C675.984 401.9 693.893 383.992 693.893 361.9C693.893 339.809 675.984 321.9 653.893 321.9C631.802 321.9 613.893 339.809 613.893 361.9C613.893 383.992 631.802 401.9 653.893 401.9Z" fill="white" stroke="black" stroke-width="20"/>
<path d="M803.893 401.9C825.984 401.9 843.893 383.992 843.893 361.9C843.893 339.809 825.984 321.9 803.893 321.9C781.802 321.9 763.893 339.809 763.893 361.9C763.893 383.992 781.802 401.9 803.893 401.9Z" fill="white" stroke="black" stroke-width="20"/>
<path d="M247.91 145L373.509 361.9H464.184" stroke="black" stroke-width="20"/>
<path d="M503.893 401.9C525.984 401.9 543.893 383.992 543.893 361.9C543.893 339.809 525.984 321.9 503.893 321.9C481.802 321.9 463.893 339.809 463.893 361.9C463.893 383.992 481.802 401.9 503.893 401.9Z" fill="white" stroke="black" stroke-width="20"/>
<path d="M0 135H2472" stroke="black" stroke-width="20"/>
<path d="M0 95H2472" stroke="black" stroke-width="20"/>
<path d="M219.253 155C241.344 155 259.253 137.091 259.253 115C259.253 92.9086 241.344 75 219.253 75C197.162 75 179.253 92.9086 179.253 115C179.253 137.091 197.162 155 219.253 155Z" fill="white" stroke="black" stroke-width="20"/>
</svg>
