<svg width="2472" height="739" viewBox="0 0 2472 739" fill="none" xmlns="http://www.w3.org/2000/svg">
<path d="M2472 0.0877075H0V738.817H2472V0.0877075Z" fill="white"/>
<path fill-rule="evenodd" clip-rule="evenodd" d="M2009.32 134.653H1853.65V114.653H2009.32V134.653Z" fill="black"/>
<path d="M1821.43 164.653C1843.52 164.653 1861.43 146.744 1861.43 124.653C1861.43 102.562 1843.52 84.653 1821.43 84.653C1799.34 84.653 1781.43 102.562 1781.43 124.653C1781.43 146.744 1799.34 164.653 1821.43 164.653Z" fill="white" stroke="black" stroke-width="20"/>
<path d="M1971.43 164.653C1993.52 164.653 2011.43 146.744 2011.43 124.653C2011.43 102.562 1993.52 84.653 1971.43 84.653C1949.34 84.653 1931.43 102.562 1931.43 124.653C1931.43 146.744 1949.34 164.653 1971.43 164.653Z" fill="white" stroke="black" stroke-width="20"/>
<path d="M1565.61 341.553L1691.21 124.653H1781.88" stroke="black" stroke-width="20"/>
<path d="M1821.59 84.653C1843.68 84.653 1861.59 102.562 1861.59 124.653C1861.59 146.744 1843.68 164.653 1821.59 164.653C1799.5 164.653 1781.59 146.744 1781.59 124.653C1781.59 102.562 1799.5 84.653 1821.59 84.653Z" fill="white" stroke="black" stroke-width="20"/>
<path fill-rule="evenodd" clip-rule="evenodd" d="M1291.71 627.9H877.036V607.9H1291.71V627.9Z" fill="black"/>
<path d="M1103.82 657.9C1125.91 657.9 1143.82 639.991 1143.82 617.9C1143.82 595.809 1125.91 577.9 1103.82 577.9C1081.73 577.9 1063.82 595.809 1063.82 617.9C1063.82 639.991 1081.73 657.9 1103.82 657.9Z" fill="white" stroke="black" stroke-width="20"/>
<path d="M1253.82 657.9C1275.91 657.9 1293.82 639.991 1293.82 617.9C1293.82 595.809 1275.91 577.9 1253.82 577.9C1231.73 577.9 1213.82 595.809 1213.82 617.9C1213.82 639.991 1231.73 657.9 1253.82 657.9Z" fill="white" stroke="black" stroke-width="20"/>
<path fill-rule="evenodd" clip-rule="evenodd" d="M1000.95 602.278L916.836 650.841L906.836 633.52L990.949 584.958L1000.95 602.278Z" fill="black"/>
<path fill-rule="evenodd" clip-rule="evenodd" d="M990.949 650.841L906.836 602.279L916.836 584.958L1000.95 633.521L990.949 650.841Z" fill="black"/>
<path fill-rule="evenodd" clip-rule="evenodd" d="M943.892 666.462V569.337H963.892V666.462H943.892Z" fill="black"/>
<path fill-rule="evenodd" clip-rule="evenodd" d="M963.892 627.9H756.557V607.9H963.892V627.9Z" fill="black"/>
<path d="M953.892 627.899C959.415 627.899 963.892 623.422 963.892 617.899C963.892 612.376 959.415 607.899 953.892 607.899C948.369 607.899 943.892 612.376 943.892 617.899C943.892 623.422 948.369 627.899 953.892 627.899Z" fill="white"/>
<path d="M908.213 632.135L933.054 617.795" stroke="white"/>
<path d="M908.213 603.664L933.054 618.004" stroke="white"/>
<path d="M999.466 632.135L974.625 617.795" stroke="white"/>
<path d="M999.466 603.664L974.625 618.004" stroke="white"/>
<path fill-rule="evenodd" clip-rule="evenodd" d="M841.785 627.9H427.113V607.9H841.785V627.9Z" fill="black"/>
<path d="M653.893 657.9C675.984 657.9 693.893 639.991 693.893 617.9C693.893 595.809 675.984 577.9 653.893 577.9C631.802 577.9 613.893 595.809 613.893 617.9C613.893 639.991 631.802 657.9 653.893 657.9Z" fill="white" stroke="black" stroke-width="20"/>
<path d="M803.893 657.9C825.984 657.9 843.893 639.991 843.893 617.9C843.893 595.809 825.984 577.9 803.893 577.9C781.802 577.9 763.893 595.809 763.893 617.9C763.893 639.991 781.802 657.9 803.893 657.9Z" fill="white" stroke="black" stroke-width="20"/>
<path d="M247.91 401L373.509 617.9H464.184" stroke="black" stroke-width="20"/>
<path d="M503.893 657.9C525.984 657.9 543.893 639.991 543.893 617.9C543.893 595.809 525.984 577.9 503.893 577.9C481.802 577.9 463.893 595.809 463.893 617.9C463.893 639.991 481.802 657.9 503.893 657.9Z" fill="white" stroke="black" stroke-width="20"/>
<path d="M0 391H2472" stroke="black" stroke-width="20"/>
<path d="M0 351H2472" stroke="black" stroke-width="20"/>
<path d="M219.253 411C241.344 411 259.253 393.091 259.253 371C259.253 348.909 241.344 331 219.253 331C197.162 331 179.253 348.909 179.253 371C179.253 393.091 197.162 411 219.253 411Z" fill="white" stroke="black" stroke-width="20"/>
<path d="M1507.98 401L1382.38 617.9H1291.71" stroke="black" stroke-width="20"/>
<path d="M1536.8 411C1558.89 411 1576.8 393.091 1576.8 371C1576.8 348.909 1558.89 331 1536.8 331C1514.71 331 1496.8 348.909 1496.8 371C1496.8 393.091 1514.71 411 1536.8 411Z" fill="white" stroke="black" stroke-width="20"/>
</svg>
