<svg width="2472" height="867" viewBox="0 0 2472 867" fill="none" xmlns="http://www.w3.org/2000/svg">
<path d="M2472 0.431152H0V866.928H2472V0.431152Z" fill="white"/>
<path d="M1999.24 165.772V85.915H1943.61V165.772L1971.43 142.956L1999.24 165.772Z" stroke="black" stroke-width="20"/>
<path fill-rule="evenodd" clip-rule="evenodd" d="M2009.32 258.653H1853.65V238.653H2009.32V258.653Z" fill="black"/>
<path d="M1821.43 288.653C1843.52 288.653 1861.43 270.744 1861.43 248.653C1861.43 226.562 1843.52 208.653 1821.43 208.653C1799.34 208.653 1781.43 226.562 1781.43 248.653C1781.43 270.744 1799.34 288.653 1821.43 288.653Z" fill="white" stroke="black" stroke-width="20"/>
<path d="M1971.43 288.653C1993.52 288.653 2011.43 270.744 2011.43 248.653C2011.43 226.562 1993.52 208.653 1971.43 208.653C1949.34 208.653 1931.43 226.562 1931.43 248.653C1931.43 270.744 1949.34 288.653 1971.43 288.653Z" fill="white" stroke="black" stroke-width="20"/>
<path d="M1565.61 465.553L1691.21 248.653H1781.88" stroke="black" stroke-width="20"/>
<path d="M1821.59 208.653C1843.68 208.653 1861.59 226.562 1861.59 248.653C1861.59 270.744 1843.68 288.653 1821.59 288.653C1799.5 288.653 1781.59 270.744 1781.59 248.653C1781.59 226.562 1799.5 208.653 1821.59 208.653Z" fill="white" stroke="black" stroke-width="20"/>
<path fill-rule="evenodd" clip-rule="evenodd" d="M1291.71 751.9H877.036V731.9H1291.71V751.9Z" fill="black"/>
<path d="M1103.82 781.9C1125.91 781.9 1143.82 763.991 1143.82 741.9C1143.82 719.809 1125.91 701.9 1103.82 701.9C1081.73 701.9 1063.82 719.809 1063.82 741.9C1063.82 763.991 1081.73 781.9 1103.82 781.9Z" fill="white" stroke="black" stroke-width="20"/>
<path d="M1253.82 781.9C1275.91 781.9 1293.82 763.991 1293.82 741.9C1293.82 719.809 1275.91 701.9 1253.82 701.9C1231.73 701.9 1213.82 719.809 1213.82 741.9C1213.82 763.991 1231.73 781.9 1253.82 781.9Z" fill="white" stroke="black" stroke-width="20"/>
<path fill-rule="evenodd" clip-rule="evenodd" d="M1000.95 726.278L916.836 774.841L906.836 757.52L990.949 708.958L1000.95 726.278Z" fill="black"/>
<path fill-rule="evenodd" clip-rule="evenodd" d="M990.949 774.841L906.836 726.279L916.836 708.958L1000.95 757.521L990.949 774.841Z" fill="black"/>
<path fill-rule="evenodd" clip-rule="evenodd" d="M943.892 790.462V693.337H963.892V790.462H943.892Z" fill="black"/>
<path fill-rule="evenodd" clip-rule="evenodd" d="M963.892 751.9H756.557V731.9H963.892V751.9Z" fill="black"/>
<path d="M953.892 751.899C959.415 751.899 963.892 747.422 963.892 741.899C963.892 736.376 959.415 731.899 953.892 731.899C948.369 731.899 943.892 736.376 943.892 741.899C943.892 747.422 948.369 751.899 953.892 751.899Z" fill="white"/>
<path d="M908.213 756.135L933.054 741.795" stroke="white"/>
<path d="M908.213 727.664L933.054 742.004" stroke="white"/>
<path d="M999.466 756.135L974.625 741.795" stroke="white"/>
<path d="M999.466 727.664L974.625 742.004" stroke="white"/>
<path fill-rule="evenodd" clip-rule="evenodd" d="M841.785 751.9H427.113V731.9H841.785V751.9Z" fill="black"/>
<path d="M653.893 781.9C675.984 781.9 693.893 763.991 693.893 741.9C693.893 719.809 675.984 701.9 653.893 701.9C631.802 701.9 613.893 719.809 613.893 741.9C613.893 763.991 631.802 781.9 653.893 781.9Z" fill="white" stroke="black" stroke-width="20"/>
<path d="M803.893 781.9C825.984 781.9 843.893 763.991 843.893 741.9C843.893 719.809 825.984 701.9 803.893 701.9C781.802 701.9 763.893 719.809 763.893 741.9C763.893 763.991 781.802 781.9 803.893 781.9Z" fill="white" stroke="black" stroke-width="20"/>
<path d="M247.91 525L373.509 741.9H464.184" stroke="black" stroke-width="20"/>
<path d="M503.893 781.9C525.984 781.9 543.893 763.991 543.893 741.9C543.893 719.809 525.984 701.9 503.893 701.9C481.802 701.9 463.893 719.809 463.893 741.9C463.893 763.991 481.802 781.9 503.893 781.9Z" fill="white" stroke="black" stroke-width="20"/>
<path d="M0 515H2472" stroke="black" stroke-width="20"/>
<path d="M0 475H2472" stroke="black" stroke-width="20"/>
<path d="M219.253 535C241.344 535 259.253 517.091 259.253 495C259.253 472.909 241.344 455 219.253 455C197.162 455 179.253 472.909 179.253 495C179.253 517.091 197.162 535 219.253 535Z" fill="white" stroke="black" stroke-width="20"/>
<path d="M1507.98 525L1382.38 741.9H1291.71" stroke="black" stroke-width="20"/>
<path d="M1536.8 535C1558.89 535 1576.8 517.091 1576.8 495C1576.8 472.909 1558.89 455 1536.8 455C1514.71 455 1496.8 472.909 1496.8 495C1496.8 517.091 1514.71 535 1536.8 535Z" fill="white" stroke="black" stroke-width="20"/>
<path d="M2220.52 465L2094.92 248.1H2004.24" stroke="black" stroke-width="20"/>
<path d="M2249.33 455C2271.42 455 2289.33 472.909 2289.33 495C2289.33 517.091 2271.42 535 2249.33 535C2227.24 535 2209.33 517.091 2209.33 495C2209.33 472.909 2227.24 455 2249.33 455Z" fill="white" stroke="black" stroke-width="20"/>
</svg>
